<?xml version="1.0" standalone="no"?>
<!DOCTYPE svg PUBLIC "-//W3C//DTD SVG 20010904//EN"
 "http://www.w3.org/TR/2001/REC-SVG-20010904/DTD/svg10.dtd">
<svg version="1.0" xmlns="http://www.w3.org/2000/svg"
 width="512.000000pt" height="512.000000pt" viewBox="0 0 512.000000 512.000000"
 preserveAspectRatio="xMidYMid meet">

<g transform="translate(0.000000,512.000000) scale(0.100000,-0.100000)"
fill="#000000" stroke="none">
<path d="M2585 5110 c-40 -12 -101 -64 -123 -103 -16 -30 -17 -108 -22 -1012
l-5 -980 -505 493 c-278 272 -522 502 -543 513 -45 23 -116 27 -169 10 -73
-24 -138 -121 -138 -207 0 -77 28 -107 630 -694 319 -310 580 -567 580 -570 0
-3 -261 -260 -580 -570 -602 -587 -630 -617 -630 -694 0 -86 65 -183 138 -207
53 -17 124 -13 169 10 21 11 265 241 543 513 l505 493 5 -980 c5 -901 6 -983
22 -1011 21 -39 72 -82 118 -102 40 -17 123 -12 165 10 15 8 302 282 637 609
500 486 615 603 634 644 28 59 30 95 8 158 -14 42 -78 108 -565 583 -302 295
-549 540 -549 544 0 4 247 249 549 544 487 475 551 541 565 583 22 63 20 99
-8 158 -19 41 -133 157 -629 640 -333 325 -623 599 -643 609 -42 22 -116 29
-159 16z m689 -1108 l250 -243 -295 -288 c-162 -158 -311 -302 -331 -320 l-38
-33 0 643 0 642 82 -79 c46 -43 195 -188 332 -322z m-51 -2347 l300 -293 -249
-244 c-137 -134 -286 -279 -331 -322 l-83 -79 0 642 0 643 31 -27 c18 -14 167
-158 332 -320z"/>
</g>
</svg>
