<?xml version="1.0" encoding="utf-8"?>
<!-- Designed by Vexels.com - 2016 All Rights Reserved - https://vexels.com/terms-and-conditions/  -->

<svg version="1.0" id="Capa_1" xmlns="http://www.w3.org/2000/svg" xmlns:xlink="http://www.w3.org/1999/xlink" x="0px" y="0px"
	 width="1200px" height="1200px" viewBox="0 0 1200 1200" enable-background="new 0 0 1200 1200" xml:space="preserve">
<g>
	<path id="_x31_" fill="#5CADCE" d="M350.016,537.488C350.016,537.488,450.583,469.58500000000004,569.111,448.7990000000001C519.134,465.16300000000007,382.914,540.3500000000001,381.58799999999997,541.676C380.26199999999994,543.003,353.28299999999996,542.5600000000001,353.28299999999996,542.5600000000001L350.016,537.488Z"/>
	<path id="_x32_" fill="#222223" d="M104.208,696.359C104.208,696.359,108.12,715.0930000000001,134.76,724.86C158.744,733.653,191.18599999999998,733.618,196.718,730.456C202.25,727.294,210.083,729.063,210.083,729.063S329.36,713.496,320.819,715.2959999999999C308.84700000000004,717.819,309.08500000000004,733.324,316.98900000000003,732.5329999999999C324.89200000000005,731.7419999999998,836.8380000000001,704.2119999999999,861.416,725.4959999999999C878.7370000000001,731.7579999999998,871.6,724.8089999999999,871.6,724.8089999999999L1006.744,712.1639999999999
		C1006.744,712.1639999999999,1049.421,712.9539999999998,1073.92,695.5679999999999C1098.419,678.1809999999998,1100,671.8589999999999,1100,671.8589999999999S1043.096,692.4069999999999,1024.92,694.7779999999999C1006.744,697.1489999999999,831.2950000000001,692.406,827.3430000000001,691.6159999999999C823.3910000000001,690.8259999999999,639.249,681.3419999999999,639.249,681.3419999999999S437.72,682.9229999999999,436.92900000000003,678.1809999999999C436.139,673.439,295.46400000000006,696.357,297.04400000000004,693.1969999999999C298.624,690.036,157.15800000000004,689.2449999999999,157.15800000000004,689.2449999999999L104.208,696.359Z"/>
	<path id="_x33_" fill="#222223" d="M386.909,535.734C389.176,534.0350000000001,489.48,450.16400000000004,658.9200000000001,442.797C828.359,435.43,965.498,484.732,966.6310000000001,487.56500000000005C967.7650000000001,490.40000000000003,931.1000000000001,524.811,901.8320000000001,533.389C872.5610000000001,541.967,388.0430000000001,547.069,388.0430000000001,547.069L386.909,535.734ZM464.108,542.309C464.108,542.309,432.204,570.192,468.00600000000003,542.309C549.0260000000001,479.207,703.278,466.74199999999996,817.797,495.56699999999995C818.576,523.6129999999999,817.018,526.7289999999999,817.018,526.7289999999999
		L832.5980000000001,527.5079999999999L834.157,497.90399999999994C834.157,497.90399999999994,882.456,508.0319999999999,900.375,516.6009999999999C918.294,525.1699999999998,906.607,534.5189999999999,906.607,534.5189999999999L531.108,559.4479999999999L464.108,542.309Z"/>
	<path id="_x35_" opacity="0.3" d="M1061.401,762.189C1061.401,760.015,857.3510000000001,749.754,601.2540000000001,749.754C345.1590000000001,749.754,133.99500000000012,760.014,133.99500000000012,762.189C133.99500000000012,764.365,342.0790000000001,763.265,598.1750000000002,763.265C854.271,763.265,1061.401,764.365,1061.401,762.189Z"/>
	<path id="_x36_" d="M164.585,714.238L183.85500000000002,705.5210000000001L334.34400000000005,699.0980000000001L355.44900000000007,711.028C355.44900000000007,711.028,365.54300000000006,699.1,368.7540000000001,693.594C371.96600000000007,688.0880000000001,326.0850000000001,573.844,324.70900000000006,573.844C323.33200000000005,573.844,210.92400000000006,583.4780000000001,210.92400000000006,583.4780000000001S142.84100000000007,622.431,143.84800000000007,622.913C144.85500000000008,623.395,134.76100000000008,673.864,135.67900000000006,677.534C136.598,681.206,164.585,714.238,164.585,714.238Z"/>
	<path id="_x37_" d="M832.151,708.274C833.525,707.814,851.4209999999999,702.308,854.632,701.851C857.843,701.391,1004.204,695.428,1003.7439999999999,695.428C1003.2869999999999,695.428,1022.555,703.228,1022.555,703.228S1034.0249999999999,691.7579999999999,1034.0249999999999,690.381S1009.7099999999998,594.491,1009.7099999999998,594.491L894.5459999999998,580.268C894.5459999999998,580.268,830.7739999999998,604.125,828.9379999999999,606.419C827.1019999999999,608.713,804.6209999999999,661.477,804.6209999999999,661.477L832.151,708.274Z"/>
	<path id="_x38_" fill="#2E2E2F" d="M675.971,446.359C675.971,446.359,662.158,512.713,646.044,531.518C656.84,532.201,685.447,529.0260000000001,685.447,529.0260000000001L700.654,445.9030000000001C700.654,445.902,681.64,445.962,675.971,446.359Z"/>
	<path id="_x39_" fill="#DBDADB" d="M1089.849,616.772C1082.21,606.734,1078.54,585.168,1080.003,575.8670000000001C1081.466,566.5690000000001,1078.701,554.6210000000001,1078.701,554.6210000000001S1074.516,534.8820000000001,1070.627,530.9560000000001C1066.734,527.0270000000002,1072.353,526.0150000000001,1077.93,523.0040000000001C1083.509,519.9910000000001,1078.73,516.9890000000001,1075.0910000000001,516.8740000000001C1071.4540000000002,516.7590000000001,1064.6840000000002,516.2630000000001,1064.6840000000002,516.2630000000001C1054.3470000000002,515.5200000000001,1028.7930000000001,503.7930000000001,952.7640000000002,477.51600000000013
		C876.7400000000002,451.24600000000015,795.6460000000002,430.2260000000001,646.5890000000002,438.1490000000001C497.52800000000013,446.0740000000001,405.0930000000002,521.9200000000001,384.18600000000015,533.0980000000001C363.27900000000017,544.2790000000001,350.01600000000013,537.4860000000001,350.01600000000013,537.4860000000001S350.01600000000013,537.4860000000001,341.1130000000001,538.1200000000001C322.8030000000001,537.5210000000001,316.25400000000013,538.5800000000002,275.11700000000013,546.8480000000001C219.32700000000014,549.2900000000001,175.98600000000013,565.1080000000001,156.0770000000001,579.5550000000001C125.70200000000011,586.2170000000001,103.97900000000011,603.98,103.97900000000011,603.98
		C98.4090000000001,609.409,100.80400000000012,608.472,100.05100000000012,612.64C99.29800000000012,616.809,107.12200000000011,646.775,107.12200000000011,646.775S100.82500000000012,665.586,105.21900000000011,667.3729999999999C109.61300000000011,669.1579999999999,110.9020000000001,671.419,114.60300000000011,680.6949999999999C91.77900000000011,692.9559999999999,104.98800000000011,699.771,115.0640000000001,705.606C125.1410000000001,711.439,151.64400000000012,718.428,165.0920000000001,715.684C156.6730000000001,687.182,162.5220000000001,655.511,168.1080000000001,643.153C173.69500000000008,630.799,189.73100000000008,588.342,255.1550000000001,588.791C345.7830000000001,593.3430000000001,351.6910000000001,687.9290000000001,351.2720000000001,698.942
		C351.4220000000001,707.043,353.2410000000001,710.412,353.2410000000001,710.412S355.9220000000001,712.476,362.2400000000001,711.302C378.0170000000001,707.309,775.2600000000001,703.643,775.2600000000001,703.643S810.6600000000001,703.517,823.9600000000002,708.553C837.2640000000001,713.591,836.1990000000002,702.368,837.2420000000002,689.9879999999999C838.2850000000002,677.6049999999999,848.3230000000002,591.612,929.4010000000002,591.382C1018.3720000000002,595.3679999999999,1018.8910000000002,682.256,1018.1160000000002,689.3599999999999C1017.3380000000002,696.4659999999999,1014.6030000000002,705.9679999999998,1034.3350000000003,701.4219999999999
		C1054.0670000000002,696.8749999999999,1068.2930000000003,689.521,1068.2930000000003,689.521S1081.0670000000002,672.376,1083.8600000000004,666.145C1086.6530000000002,659.912,1084.9740000000004,657.578,1084.9740000000004,657.578S1088.3750000000005,644.972,1092.5490000000004,634.713C1096.719,624.461,1096.144,622.835,1089.849,616.772ZM942.763,491.951C941.101,494.25100000000003,923.009,513.601,871.986,517.1030000000001C820.963,520.6030000000001,619.673,532.8460000000001,619.673,532.8460000000001S551.189,535.0560000000002,488.932,536.2360000000001L435.165,537.2880000000001
		C420.34700000000004,537.5440000000001,411.824,537.7320000000001,406.605,537.3650000000001C406.605,537.3650000000001,505.697,462.86900000000014,611.944,452.6680000000001C704.573,443.00600000000014,783.428,440.12400000000014,912.471,480.87400000000014C942.175,490.826,944.422,489.648,942.763,491.951Z"/>
	<path id="_x40_" fill="#F36C28" d="M208.546,562.523C208.546,562.523,177.821,582.673,161.016,592.485C144.20999999999998,602.3000000000001,144.20999999999998,602.3000000000001,144.20999999999998,602.3000000000001S130.123,603.422,130.986,603.407C131.85,603.389,143.43099999999998,591.3710000000001,160.792,580.394C178.153,569.42,200.215,563.542,208.546,562.523Z"/>
	<path id="_x41_" fill="#F36C28" d="M108.534,649.095C108.46000000000001,648.534,131.02700000000002,649.623,133.675,649.764C136.322,649.901,137.631,649.123,136.37800000000001,652.924C135.126,656.727,134.84,661.643,134.84,661.643S127.48100000000001,662.1560000000001,121.59100000000001,660.3770000000001C121.59100000000001,660.3770000000001,117.50500000000001,658.1650000000001,114.474,657.6080000000001C111.445,657.052,109.054,653.157,108.534,649.095Z"/>
	<path id="_x42_" fill="#D3D5D6" d="M434.965,536.271C434.965,536.271,440.702,524.2439999999999,446.566,519.0279999999999C452.42999999999995,513.8089999999999,454.936,511.2079999999999,464.61499999999995,512.733C474.2939999999999,514.255,479.08599999999996,512.4639999999999,480.41599999999994,522.943C481.74499999999995,533.419,484.90399999999994,535.346,481.25699999999995,537.684C477.6089999999999,540.0219999999999,475.92999999999995,541.189,476.82699999999994,543.727
		C477.72599999999994,546.264,454.66499999999996,542.437,452.1379999999999,543.9019999999999C449.61099999999993,545.367,449.3739999999999,547.9259999999999,450.8769999999999,552.4399999999999C436.1119999999999,552.1439999999999,420.7599999999999,550.727,420.7599999999999,550.727S440.4979999999999,543.833,436.78499999999985,542.485C433.069,541.13,434.965,536.271,434.965,536.271Z"/>
	<path id="_x43_" fill="#797A7D" d="M592.945,560.875C593.74,560.46,613.374,560.497,618.474,560.119C623.5780000000001,559.739,625.2620000000001,558.8570000000001,626.946,557.688C628.628,556.521,630.6360000000001,557.62,634.89,557.542C639.144,557.46,638.364,561.168,634.702,562.6550000000001C631.038,564.142,592.452,564.8560000000001,592.452,564.8560000000001S588.448,563.226,592.945,560.875Z"/>
	<path id="_x44_" fill="#797A7D" d="M828.651,552.531C829.4459999999999,552.116,849.079,552.1529999999999,854.1809999999999,551.7729999999999C859.2829999999999,551.3949999999999,860.9689999999999,550.5139999999999,862.6529999999999,549.3469999999999C864.3349999999999,548.1829999999999,866.3409999999999,549.2809999999998,870.5969999999999,549.1989999999998C874.8529999999998,549.1219999999998,874.0709999999999,552.8249999999998,870.4069999999998,554.3139999999999C866.7459999999999,555.8009999999998,828.1589999999998,556.5149999999999,828.1589999999998,556.5149999999999S824.154,554.887,828.651,552.531Z"/>
	<path id="_x45_" fill="#FFFFFF" d="M208.546,562.523C210.162,562.1940000000001,278.893,553.068,381.902,552.0120000000001C381.904,552.0120000000001,422.214,552.4010000000001,422.214,552.4010000000001S387.205,547.089,329.319,547.878C274.452,548.6270000000001,231.544,548.1890000000001,200.39600000000002,559.633C171.923,570.0930000000001,161.288,578.24,161.288,578.24S187.487,566.806,208.546,562.523Z"/>
	<path id="_x46_" fill="#FFFFFF" d="M402.229,672.579C400.80699999999996,672.8729999999999,527.553,668.8449999999999,659.914,664.631C751.432,661.526,810.452,653.035,810.452,653.035S770.345,636.52,674.317,643.584C578.289,650.647,445.036,663.684,402.229,672.579Z"/>
	<path id="_x47_" fill="#F36C28" d="M1017.912,535.904C1018.0400000000001,535.902,1018.4250000000001,535.897,1019.0300000000001,535.886C1026.828,535.769,1071.005,535.144,1071.63,535.1329999999999C1072.306,535.1199999999999,1082.707,550.4409999999999,1079.68,569.1589999999999C1068.471,570.9379999999999,1061.4370000000001,567.4729999999998,1046.655,558.3029999999999C1031.868,549.1349999999999,1018.425,535.8969999999999,1018.425,535.8969999999999"/>
	<path id="_x48_" fill="#FFFFFF" d="M774.456,546.216C771.876,546.791,799.229,543.116,833.523,540.365C867.8140000000001,537.618,1023.5840000000001,532.618,1054.236,533.106C1044.6480000000001,529.9639999999999,1035.883,528.316,1023.0910000000001,521.582C1007.1930000000001,513.209,902.9360000000001,522.701,890.8470000000001,526.095C878.761,529.489,815.336,537.15,774.456,546.216Z"/>
	<path id="_x49_" fill="#FFFFFF" d="M394.888,540.544C387.83299999999997,547.226,383.298,558.758,382.08799999999997,573.231C380.02399999999994,597.937,381.104,665.497,388.07599999999996,696.746L389.12699999999995,696.514C382.2939999999999,665.8820000000001,381.155,597.34,383.162,573.322C384.399,558.522,389.133,546.873,396.49199999999996,540.525C396.55699999999996,540.472,396.60599999999994,540.428,396.657,540.381C397.50899999999996,540.286,398.346,540.169,399.137,540.01L398.925,538.956C389.80600000000004,540.79,375.135,538.01,374.988,537.982L374.785,539.04C375.24,539.126,383.37100000000004,540.668,391.346,540.668C392.539,540.668,393.726,540.624,394.888,540.544Z"/>
	<path id="_x50_" fill="#B6B8BA" d="M1071.591,571.355C1071.558,571.585,1068.3999999999999,594.417,1066.341,602.875C1064.397,610.865,1061.745,614.202,1041.427,617.554C1021.9159999999999,620.776,1000.5999999999999,622.073,999.2919999999999,621.744L999.098,622.246L998.809,622.699C998.9639999999999,622.798,999.598,622.8449999999999,1000.621,622.8449999999999C1006.622,622.8449999999999,1026.0339999999999,621.1879999999999,1041.603,618.6179999999999C1061.5320000000002,615.3299999999999,1065.182,612.1969999999999,1067.3870000000002,603.131C1069.4600000000003,594.622,1072.6280000000002,571.7339999999999,1072.6570000000002,571.505L1071.591,571.355Z"/>
	<path id="_x51_" fill="#FFFFFF" d="M958.19,491.471C956.864,493.642,944.451,511.51,892.3030000000001,518.897C891.7090000000001,517.5490000000001,891.2290000000002,516.3710000000001,890.8910000000001,515.5360000000001C890.624,514.8770000000001,890.436,514.422,890.3410000000001,514.2410000000001L889.3890000000001,514.7410000000001C889.4750000000001,514.9090000000001,889.6450000000001,515.3310000000001,889.8930000000001,515.94C890.2130000000002,516.724,890.6530000000001,517.8100000000001,891.1970000000001,519.0490000000001C887.1180000000002,519.6100000000001,882.8090000000001,520.109,878.2400000000001,520.5280000000001
		C840.3940000000001,524.0090000000001,745.8640000000001,530.1340000000001,664.1550000000001,535.0480000000001C664.464,533.7220000000001,664.7400000000001,532.5780000000001,664.9680000000001,531.6540000000001L665.0600000000001,531.2740000000001L664.0110000000001,531.0330000000001L663.922,531.3980000000001C663.676,532.3970000000002,663.375,533.6450000000001,663.032,535.1170000000002C600.33,538.8840000000002,545.385,541.9290000000002,529.745,542.4970000000002C492.528,543.8540000000002,478.636,543.4560000000001,478.556,543.4520000000002L478.519,543.8060000000003L478.511,543.4480000000003L478.17600000000004,543.4570000000003L477.87700000000007,544.0050000000003L478.0420000000001,544.2720000000004
		C478.0930000000001,544.3540000000004,478.1370000000001,544.4240000000004,478.5330000000001,544.4800000000004L478.53400000000005,544.5240000000003L478.5330000000001,544.4800000000004C479.1120000000001,544.5570000000004,480.44500000000005,544.6020000000003,483.6650000000001,544.6020000000003C485.32700000000006,544.6020000000003,487.49300000000005,544.5910000000003,490.3180000000001,544.5670000000003C497.7430000000001,544.4990000000004,510.6180000000001,544.2750000000003,529.7850000000001,543.5770000000003C545.402,543.0070000000003,600.1980000000001,539.9730000000003,662.7810000000001,536.2120000000003C659.389,550.9770000000003,652.4710000000001,585.2170000000003,650.969,624.4710000000003C649.3130000000001,667.7370000000003,651.493,686.9250000000003,652.086,691.1810000000004
		C618.4300000000001,691.8330000000004,589.803,692.3630000000004,589.184,692.3760000000004L351.15199999999993,697.6390000000005L351.17599999999993,698.7170000000004L589.2069999999999,693.4510000000005C590.5459999999999,693.4240000000004,723.483,690.9580000000004,754.0509999999999,690.1120000000004C785.429,689.2410000000004,788.8689999999999,687.4490000000004,815.4379999999999,658.1520000000004C842.3399999999999,628.4830000000004,895.8769999999998,556.3530000000004,902.5369999999999,546.9290000000004C908.7019999999999,538.2160000000005,907.4379999999999,536.6650000000004,902.5219999999999,533.0770000000005C901.9699999999999,532.6730000000005,901.3729999999999,532.2370000000004,900.741,531.7510000000004C897.431,529.1990000000004,894.631,523.9970000000004,892.764,519.9170000000005C945.152,512.4130000000005,957.76,494.2410000000005,959.108,492.0320000000005L958.684,491.6960000000005L958.19,491.471ZM900.084,532.603
		C900.7249999999999,533.098,901.328,533.54,901.8889999999999,533.949C906.3149999999999,537.1769999999999,907.5039999999999,538.0459999999999,901.6589999999999,546.31C895.0029999999999,555.7249999999999,841.5129999999999,627.794,814.6389999999999,657.4309999999999C788.3619999999999,686.406,784.9639999999999,688.18,754.0209999999998,689.0379999999999C737.7069999999999,689.4889999999999,692.2339999999998,690.401,653.1719999999998,691.1589999999999C652.6209999999998,687.3079999999999,650.3699999999998,668.2849999999999,652.0449999999998,624.5129999999999C653.5549999999998,585.0649999999999,660.5429999999999,550.6959999999999,663.8989999999999,536.1429999999999C745.6969999999999,531.2239999999999,840.435,525.0859999999999,878.3389999999999,521.6019999999999C883.039,521.1689999999999,887.4649999999999,520.6539999999999,891.6519999999999,520.0729999999999C893.563,524.295,896.513,529.854,900.084,532.603Z"/>
	<path id="_x52_" fill="#FFFFFF" d="M543.939,463.029C622.761,439.662,701.434,442.338,743.697,443.775L749.127,443.957C750.0129999999999,443.992,839.1809999999999,447.921,947.5529999999999,485.86699999999996C948.0789999999998,486.10499999999996,948.6049999999999,486.342,949.1309999999999,486.57899999999995L949.6919999999999,487.36099999999993C949.8329999999999,487.25699999999995,949.9569999999999,487.1289999999999,950.0939999999999,487.0129999999999C1008.6819999999999,513.4279999999999,1060.606,536.1429999999999,1061.1319999999998,536.3749999999999L1061.5629999999999,535.3869999999998
		C1061.0369999999998,535.1569999999998,1009.3469999999999,512.5439999999999,950.8809999999999,486.1899999999998C952.2309999999999,484.51399999999984,952.9869999999999,482.16799999999984,953.5189999999999,480.4889999999998C953.7239999999999,479.8479999999998,953.9789999999999,479.04799999999983,954.1089999999999,478.8939999999998L953.7159999999999,478.5239999999998L953.329,478.14999999999975C953.048,478.44099999999975,952.861,479.00799999999975,952.4939999999999,480.1629999999997C951.9639999999999,481.8389999999997,951.1949999999999,484.22299999999973,949.867,485.7309999999997
		C949.228,485.4459999999997,948.592,485.15799999999973,947.953,484.8689999999997C839.3779999999999,446.8489999999997,750.059,442.9169999999997,749.1659999999999,442.88199999999966L743.733,442.69999999999965C701.41,441.2589999999997,622.6229999999999,438.57999999999964,543.6329999999999,461.99799999999965C461.9649999999999,486.2109999999997,399.3329999999999,537.3369999999996,398.7099999999999,537.8499999999997L399.39399999999995,538.6809999999997C400.016,538.167,462.478,487.18,543.939,463.029Z"/>
	<path id="_x53_" fill="#FFFFFF" d="M152.661,598.31L152.743,599.386C152.978,599.366,176.34799999999998,597.601,182.751,598.5509999999999C189.177,599.4989999999999,200.84,602.78,200.957,602.8129999999999L201.249,601.7769999999999C201.131,601.7439999999999,189.403,598.4449999999999,182.908,597.4859999999999C176.388,596.518,153.627,598.238,152.661,598.31Z"/>
	<path id="_x54_" fill="#B6B8BA" d="M394.831,539.987C387.776,546.6669999999999,383.24100000000004,558.201,382.03200000000004,572.6759999999999C379.968,597.377,381.047,664.9379999999999,388.02000000000004,696.189L389.07000000000005,695.957C382.237,665.323,381.09800000000007,596.786,383.1050000000001,572.767C384.3430000000001,557.9620000000001,389.0760000000001,546.315,396.43500000000006,539.9670000000001C396.50000000000006,539.9120000000001,396.54900000000004,539.8700000000001,396.6000000000001,539.8230000000001C397.45200000000006,539.7280000000001,398.2900000000001,539.6110000000001,399.0800000000001,539.4520000000001
		L398.8680000000001,538.3960000000001C389.74900000000014,540.23,375.0790000000001,537.4520000000001,374.9310000000001,537.4240000000001L374.7280000000001,538.4800000000001C375.18200000000013,538.5680000000001,383.3130000000001,540.1090000000002,391.2880000000001,540.1090000000002C392.482,540.109,393.669,540.067,394.831,539.987Z"/>
	<path id="_x55_" fill="#A9ABAE" d="M1071.536,570.798C1071.5030000000002,571.026,1068.343,593.86,1066.284,602.316C1064.3400000000001,610.308,1061.69,613.645,1041.3700000000001,616.9970000000001C1021.8590000000002,620.2160000000001,1000.5450000000001,621.518,999.2350000000001,621.186L999.0430000000001,621.6850000000001L998.7510000000001,622.138C998.9080000000001,622.2370000000001,999.5400000000001,622.288,1000.565,622.288C1006.566,622.288,1025.978,620.629,1041.545,618.057C1061.4740000000002,614.7710000000001,1065.124,611.638,1067.3290000000002,602.572C1069.4020000000003,594.06,1072.5680000000002,571.175,1072.601,570.946L1071.536,570.798Z"/>
	<path id="_x56_" fill="#B6B8BA" d="M958.135,490.913C956.807,493.084,944.395,510.95300000000003,892.248,518.34C891.654,516.991,891.1740000000001,515.8140000000001,890.8340000000001,514.979C890.567,514.32,890.3810000000001,513.865,890.2840000000001,513.6840000000001L889.3320000000001,514.1830000000001C889.4200000000001,514.3510000000001,889.5910000000001,514.7730000000001,889.8360000000001,515.3830000000002C890.1540000000001,516.1670000000001,890.5980000000001,517.2520000000002,891.1400000000001,518.4910000000001C887.0630000000001,519.0520000000001,882.7550000000001,519.5520000000001,878.1850000000001,519.9710000000001
		C840.336,523.4520000000001,745.808,529.5770000000001,664.099,534.4910000000001C664.408,533.1650000000001,664.6840000000001,532.0210000000001,664.912,531.0970000000001L665.004,530.7150000000001L663.955,530.4760000000001L663.8670000000001,530.8380000000001C663.6210000000001,531.839,663.32,533.085,662.9770000000001,534.5590000000001C600.2740000000001,538.3260000000001,545.3290000000001,541.3710000000001,529.69,541.9390000000001C492.47300000000007,543.296,478.5810000000001,542.898,478.50000000000006,542.8940000000001L478.4630000000001,543.2480000000002L478.4550000000001,542.8880000000001L478.1200000000001,542.8970000000002L477.82100000000014,543.4470000000001L477.98600000000016,543.7120000000001
		C478.0380000000002,543.796,478.08200000000016,543.8670000000001,478.47700000000015,543.9200000000001L478.47900000000016,543.9660000000001L478.47700000000015,543.9200000000001C479.05600000000015,544.0000000000001,480.39000000000016,544.0440000000001,483.60900000000015,544.0440000000001C485.27100000000013,544.0440000000001,487.4370000000001,544.0330000000001,490.26200000000017,544.0090000000001C497.6870000000002,543.9410000000001,510.5620000000002,543.7150000000001,529.7300000000001,543.0170000000002C545.3460000000001,542.4490000000002,600.1430000000001,539.4130000000001,662.7250000000001,535.6550000000002
		C659.3330000000001,550.4170000000001,652.4170000000001,584.6600000000002,650.9150000000002,623.9120000000003C649.2590000000002,667.1800000000003,651.4390000000002,686.3700000000002,652.0320000000002,690.6240000000003C618.3760000000002,691.2760000000003,589.7490000000001,691.8060000000003,589.1300000000001,691.8170000000002L351.09800000000007,697.0830000000002L351.12200000000007,698.1590000000002L589.152,692.8930000000003C590.4910000000001,692.8690000000003,723.426,690.4030000000002,753.9960000000001,689.5570000000002C785.3700000000001,688.6860000000003,788.815,686.8940000000002,815.3790000000001,657.5970000000002
		C842.2860000000002,627.9250000000002,895.8210000000001,555.7960000000002,902.4830000000002,546.3720000000002C908.6460000000002,537.6620000000001,907.3840000000001,536.1110000000002,902.4670000000002,532.5220000000002C901.9150000000002,532.1180000000002,901.3180000000002,531.6820000000001,900.6840000000002,531.1940000000002C897.3740000000003,528.6440000000002,894.5740000000002,523.4430000000002,892.7070000000002,519.3620000000002C945.0950000000003,511.8580000000002,957.7010000000002,493.6860000000002,959.0530000000002,491.4770000000002L958.6290000000002,491.1410000000002L958.135,490.913ZM900.024,532.046C900.667,532.541,901.273,532.9830000000001,901.832,533.389
		C906.258,536.62,907.447,537.488,901.602,545.75C894.949,555.167,841.454,627.234,814.582,656.871C788.307,685.848,784.907,687.62,753.965,688.48C737.6510000000001,688.931,692.178,689.8430000000001,653.114,690.601C652.563,686.75,650.3140000000001,667.725,651.989,623.955C653.499,584.504,660.4870000000001,550.1360000000001,663.8430000000001,535.585C745.6400000000001,530.666,840.3800000000001,524.528,878.2810000000001,521.044C882.9810000000001,520.611,887.4090000000001,520.095,891.594,519.514C893.508,523.738,896.456,529.297,900.024,532.046Z"/>
	<path id="_x57_" fill="#B6B8BA" d="M543.882,462.472C622.7049999999999,439.10499999999996,701.376,441.781,743.64,443.217L749.069,443.4C749.957,443.433,839.127,447.363,947.496,485.30899999999997C948.024,485.546,948.55,485.78499999999997,949.074,486.02099999999996L949.635,486.80199999999996C949.776,486.7,949.902,486.57199999999995,950.035,486.455C1008.626,512.87,1060.55,535.585,1061.075,535.8149999999999L1061.506,534.8299999999999C1060.9820000000002,534.5999999999999,1009.2920000000001,511.9869999999999,950.8230000000001,485.6329999999999C952.171,483.95699999999994,952.931,481.61099999999993,953.464,479.9309999999999
		C953.667,479.28899999999993,953.921,478.49099999999993,954.052,478.33699999999993L953.6610000000001,477.96599999999995L953.2740000000001,477.59099999999995C952.9930000000002,477.88199999999995,952.8050000000001,478.44899999999996,952.4370000000001,479.60499999999996C951.9070000000002,481.28099999999995,951.1400000000001,483.66499999999996,949.8100000000002,485.17299999999994C949.1710000000002,484.88599999999997,948.5350000000002,484.59899999999993,947.8960000000002,484.3109999999999C839.3210000000001,446.2899999999999,750.0020000000002,442.3589999999999,749.1090000000002,442.3239999999999L743.6770000000001,442.1409999999999
		C701.3520000000001,440.69999999999993,622.5650000000002,438.02199999999993,543.5770000000001,461.4399999999999C461.9090000000001,485.6529999999999,399.2770000000001,536.7789999999999,398.6540000000001,537.2919999999999L399.3390000000001,538.1229999999999C399.959,537.61,462.422,486.621,543.882,462.472Z"/>
	<path id="_x58_" fill="#A3A5A8" d="M152.604,597.754L152.686,598.828C152.92100000000002,598.81,176.292,597.045,182.695,597.995C189.12099999999998,598.941,200.784,602.224,200.90099999999998,602.257L201.19299999999998,601.218C201.075,601.187,189.34699999999998,597.886,182.85199999999998,596.929C176.332,595.962,153.571,597.681,152.604,597.754Z"/>
	<path id="_x59_" fill="url(#SVGID_1_)" d="M317.703,676.254C317.05199999999996,641.105,287.79299999999995,613.142,252.35199999999998,613.8000000000001C216.91099999999997,614.4580000000001,188.70899999999997,643.4830000000001,189.35999999999999,678.6320000000001C190.01199999999997,713.783,219.271,741.7460000000001,254.712,741.089C290.152,740.431,318.355,711.403,317.703,676.254Z"/>
	<path id="_x60_" fill="#414042" d="M236.212,674.398C237.518,673.715,238.41799999999998,668.9200000000001,235.40699999999998,666.503C232.39499999999998,664.086,217.391,654.969,213.25699999999998,654.22C209.123,653.475,203.84499999999997,653.243,204.15899999999996,652.413C204.42199999999997,651.717,204.27699999999996,647.662,204.51299999999998,646.1800000000001C203.20699999999997,649.201,195.68399999999997,664.394,194.79899999999998,672.0350000000001C194.60099999999997,673.7450000000001,214.61899999999997,674.306,221.87499999999997,674.5010000000001C229.13,674.696,234.908,675.083,236.212,674.398ZM204.693,645.644
		C204.615,645.699,204.55800000000002,645.896,204.513,646.179C204.674,645.805,204.746,645.606,204.693,645.644ZM269.473,672.628L269.485,673.2860000000001C273.78200000000004,673.8670000000001,275.833,677.783,283.913,677.964C291.991,678.1450000000001,309.348,671.8900000000001,309.348,671.8900000000001S309.348,671.8900000000001,312.377,675.2950000000001C312.76800000000003,669.6830000000001,306.81100000000004,650.6750000000001,306.31600000000003,650.682C305.82300000000004,650.691,300.44000000000005,653.758,293.41600000000005,657.1850000000001C286.393,660.612,271.111,672.102,269.473,672.628ZM255.081,660.862
		C259.157,658.482,261.57599999999996,655.634,262.90999999999997,647.534C264.24399999999997,639.431,265.662,627.043,265.662,627.043S265.10299999999995,623.594,266.577,623.07C268.051,622.5490000000001,271.353,622.816,271.847,622.807C272.341,622.798,257.40099999999995,617.139,242.152,621.3820000000001C240.564,621.8220000000001,250.873,656.163,251.402,657.9630000000001C251.929,659.77,251.004,663.246,255.081,660.862ZM241.161,692.437C239.336,691.812,235.59,694.189,231.05,698.2280000000001C226.51000000000002,702.267,214.42600000000002,717.326,214.42600000000002,717.326C217.138,721.3960000000001,230.638,729.388,230.638,729.388S242.415,697.8520000000001,243.685,695.1940000000001
		C244.955,692.535,242.986,693.063,241.161,692.437ZM274.231,680.287C269.915,678.5550000000001,261.778,675.408,262.736,673.7420000000001C263.695,672.076,264.81,669.9130000000001,268.57099999999997,668.359C272.33299999999997,666.808,274.243,663.144,275.695,661.469C277.147,659.7940000000001,298.698,639.7840000000001,298.698,639.7840000000001S285.959,628.315,280.986,626.7590000000001C274.163,641.0610000000001,263.79699999999997,659.8760000000001,260.233,663.2410000000001C256.671,666.6020000000001,251.828,672.1300000000001,250.602,668.1990000000001C249.375,664.2660000000001,246.918,656.234,242.04500000000002,651.214C237.173,646.196,231.08200000000002,628.839,231.08200000000002,628.839L235.74400000000003,622.4870000000001
		C235.74400000000003,622.4870000000001,218.25600000000003,630.5580000000001,211.63000000000002,637.604C221.181,645.998,239.437,661.6450000000001,241.88000000000002,669.018C244.324,676.389,246.16800000000003,678.005,242.54300000000003,678.071C238.91900000000004,678.1370000000001,229.70000000000005,678.802,229.70000000000005,678.802S221.53900000000004,683.075,211.81800000000004,683.2570000000001C202.09600000000003,683.436,195.52900000000005,684.8770000000001,195.53900000000004,685.369C195.54800000000003,685.8620000000001,202.10200000000003,701.566,203.47800000000004,704.668C217.00400000000005,696.344,230.73000000000005,689.828,233.34400000000005,688.624
		C235.95900000000006,687.422,241.36500000000007,685.676,245.66200000000006,686.253C249.95800000000006,686.832,252.09500000000006,686.4630000000001,251.31000000000006,688.6220000000001C250.94900000000007,689.614,247.06000000000006,699.4140000000001,247.48700000000005,704.682C247.91300000000004,709.948,244.96300000000005,728.626,244.64700000000005,729.291C244.32900000000004,729.9580000000001,243.41000000000005,733.7660000000001,243.41000000000005,733.7660000000001L263.3620000000001,734.2230000000001C263.3620000000001,734.2230000000001,256.2130000000001,704.1920000000001,257.3040000000001,700.8750000000001C258.3970000000001,697.5560000000002,260.1460000000001,685.1640000000001,261.63200000000006,685.2990000000001
		C263.1170000000001,685.436,271.31100000000004,691.714,272.30800000000005,692.1910000000001C273.30500000000006,692.6640000000001,277.23500000000007,691.2740000000001,281.23900000000003,693.8350000000002C285.242,696.3980000000001,302.374,704.8170000000001,303.70500000000004,705.4510000000001C305.035,706.0850000000002,312.02600000000007,691.9460000000001,312.612,687.9820000000001C304.018,686.659,278.547,682.021,274.231,680.287ZM265.194,691.885C264.708,692.042,260.473,695.953,263.452,702.531C266.431,709.111,278.72,727.867,278.72,727.867S289.25600000000003,723.6909999999999,296.8,717.736C287.786,710.449,272.31600000000003,696.245,269.731,694.455C269.732,694.455,266.209,691.558,265.194,691.885Z"/>
	<path id="_x61_" fill="#B1B3B6" d="M250.148,675.399L257.542,675.2620000000001C257.542,675.2620000000001,258.71999999999997,677.089,257.4,677.1160000000001C256.07899999999995,677.1400000000001,255.37999999999997,677.416,255.37999999999997,677.416L255.48499999999996,683.051C255.48499999999996,683.051,253.14799999999997,685.2940000000001,253.09599999999995,682.479C253.04399999999995,679.662,253.09199999999996,677.547,253.09199999999996,677.547L250.44499999999996,677.244C250.447,677.244,248.397,675.96,250.148,675.399Z"/>
	<path id="_x62_" fill="#222223" d="M1014.808,675.861C1013.942,629.043,974.971,591.799,927.766,592.6759999999999C880.56,593.549,842.9939999999999,632.2099999999999,843.862,679.0289999999999C844.728,725.8469999999999,883.702,763.0879999999999,930.908,762.2149999999999C978.11,761.338,1015.676,722.678,1014.808,675.861Z"/>
	<path id="_x63_" fill="url(#SVGID_2_)" d="M993.509,676.254C992.855,641.105,963.597,613.142,928.155,613.8000000000001C892.7149999999999,614.4580000000001,864.5129999999999,643.4830000000001,865.165,678.6320000000001C865.817,713.783,895.074,741.7460000000001,930.515,741.089C965.955,740.431,994.159,711.403,993.509,676.254Z"/>
	<path id="_x64_" fill="#414042" d="M912.016,674.398C913.322,673.715,914.223,668.9200000000001,911.209,666.503C908.197,664.086,893.194,654.969,889.06,654.22C884.9259999999999,653.475,879.6469999999999,653.243,879.963,652.413C880.2239999999999,651.717,880.0799999999999,647.662,880.314,646.1800000000001C879.01,649.201,871.486,664.394,870.603,672.0350000000001C870.404,673.7450000000001,890.423,674.306,897.678,674.5010000000001C904.934,674.696,910.71,675.083,912.016,674.398ZM880.498,645.644C880.421,645.699,880.3610000000001,645.896,880.315,646.179C880.478,645.805,880.551,645.606,880.498,645.644ZM945.277,672.628L945.288,673.2860000000001
		C949.586,673.8670000000001,951.636,677.783,959.715,677.964C967.796,678.1450000000001,985.152,671.8900000000001,985.152,671.8900000000001S985.152,671.8900000000001,988.181,675.2950000000001C988.57,669.6830000000001,982.613,650.6750000000001,982.12,650.682C981.625,650.691,976.245,653.758,969.22,657.1850000000001C962.196,660.612,946.915,672.102,945.277,672.628ZM930.886,660.862C934.961,658.482,937.3779999999999,655.634,938.713,647.534C940.048,639.431,941.466,627.043,941.466,627.043S940.907,623.594,942.381,623.07C943.855,622.5490000000001,947.156,622.816,947.651,622.807C948.146,622.798,933.204,617.139,917.958,621.3820000000001
		C916.367,621.8220000000001,926.677,656.163,927.2049999999999,657.9630000000001C927.733,659.77,926.807,663.246,930.886,660.862ZM916.965,692.437C915.14,691.812,911.392,694.189,906.854,698.2280000000001C902.315,702.267,890.229,717.326,890.229,717.326C892.94,721.3960000000001,906.443,729.388,906.443,729.388S918.218,697.8520000000001,919.489,695.1940000000001C920.759,692.535,918.79,693.063,916.965,692.437ZM950.035,680.287C945.717,678.5550000000001,937.582,675.408,938.538,673.7420000000001C939.499,672.076,940.613,669.9130000000001,944.376,668.359C948.137,666.808,950.0459999999999,663.144,951.4979999999999,661.469
		C952.9499999999999,659.7940000000001,974.502,639.7840000000001,974.502,639.7840000000001S961.7629999999999,628.315,956.79,626.7590000000001C949.967,641.0610000000001,939.601,659.8760000000001,936.0369999999999,663.2410000000001C932.4749999999999,666.6020000000001,927.632,672.1300000000001,926.405,668.1990000000001C925.179,664.2660000000001,922.721,656.234,917.8489999999999,651.214C912.9749999999999,646.196,906.8849999999999,628.839,906.8849999999999,628.839L911.5489999999999,622.4870000000001C911.5489999999999,622.4870000000001,894.0599999999998,630.5580000000001,887.4329999999999,637.604
		C896.9849999999999,645.998,915.2389999999999,661.6450000000001,917.6849999999998,669.018C920.1269999999998,676.389,921.9719999999999,678.005,918.3459999999998,678.071C914.7219999999998,678.1370000000001,905.5039999999998,678.802,905.5039999999998,678.802S897.3419999999998,683.075,887.6239999999998,683.2570000000001C877.8989999999998,683.436,871.3349999999998,684.8770000000001,871.3429999999998,685.369C871.3519999999999,685.8620000000001,877.9059999999998,701.566,879.2799999999999,704.668C892.8069999999999,696.344,906.5339999999999,689.828,909.1479999999999,688.624C911.762,687.422,917.1709999999999,685.676,921.4639999999999,686.253
		C925.762,686.832,927.8979999999999,686.4630000000001,927.1139999999999,688.6220000000001C926.7539999999999,689.614,922.8649999999999,699.4140000000001,923.2889999999999,704.682C923.7179999999998,709.948,920.7679999999999,728.626,920.4499999999998,729.291C920.1319999999998,729.9580000000001,919.2149999999998,733.7660000000001,919.2149999999998,733.7660000000001L939.1659999999998,734.2230000000001C939.1659999999998,734.2230000000001,932.0179999999998,704.1920000000001,933.1089999999998,700.8750000000001C934.2009999999998,697.5560000000002,935.9509999999998,685.1640000000001,937.4379999999998,685.2990000000001
		C938.9229999999998,685.436,947.1159999999998,691.714,948.1099999999998,692.1910000000001C949.1089999999998,692.6640000000001,953.0399999999997,691.2740000000001,957.0439999999998,693.8350000000002C961.0459999999997,696.3980000000001,978.1789999999997,704.8170000000001,979.5119999999997,705.4510000000001C980.8399999999997,706.0850000000002,987.8309999999997,691.9460000000001,988.4169999999997,687.9820000000001C979.823,686.659,954.35,682.021,950.035,680.287ZM940.997,691.885C940.5129999999999,692.042,936.2769999999999,695.953,939.256,702.531C942.237,709.111,954.525,727.867,954.525,727.867S965.0609999999999,723.6909999999999,972.6039999999999,717.736
		C963.5909999999999,710.449,948.1189999999999,696.245,945.5339999999999,694.455C945.534,694.455,942.014,691.558,940.997,691.885Z"/>
	<path id="_x65_" fill="#B1B3B6" d="M925.952,675.399L933.348,675.2620000000001C933.348,675.2620000000001,934.526,677.089,933.204,677.1160000000001C931.885,677.1400000000001,931.184,677.416,931.184,677.416L931.29,683.051C931.29,683.051,928.954,685.2940000000001,928.901,682.479C928.848,679.662,928.8969999999999,677.547,928.8969999999999,677.547L926.2499999999999,677.244C926.25,677.244,924.2,675.96,925.952,675.399Z"/>
	<path id="_x66_" fill="#FFFFFF" d="M479.403,528.925C477.87,528.925,447.514,534.137,447.514,534.137S476.64300000000003,535.0569999999999,477.87,535.0569999999999C479.096,535.058,479.403,528.925,479.403,528.925Z"/>
	<path id="_x67_" fill="#FFFFFF" d="M478.483,539.657C478.981,538.495,446.594,538.4300000000001,445.674,539.35C444.75399999999996,540.27,445.674,546.7090000000001,445.674,546.7090000000001S444.14,540.2700000000001,452.727,540.2700000000001C461.313,540.27,477.563,541.804,478.483,539.657Z"/>
	<path id="_x68_" fill="#FFFFFF" d="M472.658,515.74C473.918,516.28,446.901,530.764,446.901,530.764L455.486,515.433C455.486,515.433,466.219,512.981,472.658,515.74Z"/>
</g>
</svg>
